<?xml version="1.0" encoding="utf-8"?>
<!-- Generator: Adobe Illustrator 22.0.1, SVG Export Plug-In . SVG Version: 6.00 Build 0)  -->
<svg version="1.1" id="Layer_1" xmlns="http://www.w3.org/2000/svg" xmlns:xlink="http://www.w3.org/1999/xlink" x="0px" y="0px"
	 viewBox="0 0 41.7 30" style="enable-background:new 0 0 41.7 30;" xml:space="preserve">
<style type="text/css">
	.st0{fill:#888888;}
</style>
<title>aaa</title>
<path class="st0" d="M40.9,9.9C40.5,9.2,39.9,9,39.2,9H35V7c0-2-1.3-3.5-3.3-3.7H15.3c0-3.1-0.9-3.3-3.9-3.3H3.7C0.9,0,0,0.2,0,3.3
	v23.2c0,2,1.3,3.5,3.3,3.5h28.5c1.8,0,3.3-1.3,3.9-3.1l5.9-14.5C41.8,11.4,41.6,10.5,40.9,9.9z M2.2,2.4h9.2c0.7,0,1.1,0,1.8,0v3.3
	h18.6c0.7,0,1.1,0.4,1.1,1.1l0,0l0,0v2H10.9c-1.8,0-3.3,1.1-3.9,2.6L2.2,26.1V2.4z M33.5,26.5c-0.2,0.9-0.9,1.3-1.8,1.3H4.6
	c-0.2,0-0.2,0-0.4-0.2c0-0.2,0-0.2,0-0.4L9,12c0.2-0.4,0.9-1.1,1.8-1.1H39c0.2,0,0.2,0.2,0.4,0.2c0,0.2,0,0.2,0,0.4L33.5,26.5z"/>
</svg>
