<?xml version="1.0" encoding="utf-8"?>
<!-- Generator: Adobe Illustrator 22.0.1, SVG Export Plug-In . SVG Version: 6.00 Build 0)  -->
<svg version="1.1" id="Layer_1" xmlns="http://www.w3.org/2000/svg" xmlns:xlink="http://www.w3.org/1999/xlink" x="0px" y="0px"
	 viewBox="0 0 41.7 30" style="enable-background:new 0 0 41.7 30;" xml:space="preserve">
<style type="text/css">
	.st0{fill:#888888;}
</style>
<title>asf</title>
<path class="st0" d="M35.2,22.3c-0.2,0-0.2,0-0.4,0l-3.5-1.7c-0.4-0.2-0.6-0.4-0.6-0.8v-5c0-0.6,0.4-1,1-1c0.6,0,1,0.4,1,1v4.4
	l2.7,1.2c0.4,0.2,0.6,0.8,0.4,1.3C35.8,22.1,35.4,22.3,35.2,22.3L35.2,22.3z"/>
<rect x="5.8" y="10" class="st0" width="4" height="4"/>
<rect x="5.8" y="17.9" class="st0" width="4" height="4"/>
<rect x="14" y="17.9" class="st0" width="4" height="4"/>
<rect x="14" y="10" class="st0" width="4" height="4"/>
<path class="st0" d="M31.7,10c-5.4,0-10,4.4-10,10s4.4,10,10,10s10-4.4,10-10S37.3,10,31.7,10z M31.7,27.7c-4.4,0-7.9-3.5-7.9-7.7
	c0-4.4,3.5-7.9,7.7-7.9c4.4,0,7.9,3.5,7.9,7.7l0,0l0,0C39.6,24.2,36,27.7,31.7,27.7z"/>
<path class="st0" d="M32.7,0H3.1C1.5,0,0.2,1.5,0,3.1V25c0.2,1.5,1.5,2.7,2.9,2.7h21l-0.6-0.4c-0.4-0.4-0.8-1-1.2-1.5H2.9
	c-0.4,0-0.8-0.4-0.8-0.8V6.7h31.7v1.9l2.1,0.6v-6C35.8,1.2,34.4,0,32.7,0z M2.1,4.6V2.9c0-0.4,0.4-0.8,0.8-1h30
	c0.4,0,0.8,0.4,0.8,0.8v1.7H2.1V4.6z"/>
</svg>
