<?xml version="1.0" encoding="utf-8"?>
<!-- Generator: Adobe Illustrator 22.0.1, SVG Export Plug-In . SVG Version: 6.00 Build 0)  -->
<svg version="1.1" id="Layer_1" xmlns="http://www.w3.org/2000/svg" xmlns:xlink="http://www.w3.org/1999/xlink" x="0px" y="0px"
	 viewBox="0 0 38.8 30" style="enable-background:new 0 0 38.8 30;" xml:space="preserve">
<style type="text/css">
	.st0{fill:#888888;}
</style>
<title>Artboard 1</title>
<path class="st0" d="M36.1,9.6h-6.9c-1.5,0-2.6,1.2-2.7,2.7v15.1c0,1.5,1.2,2.6,2.7,2.7h6.9c1.5,0,2.6-1.2,2.7-2.7V12.2
	C38.7,10.8,37.5,9.7,36.1,9.6z M33.3,28.6L33.3,28.6c-0.5,0.4-1.2,0.4-1.6,0l0,0c-0.3-0.2-0.4-0.5-0.4-0.8c0.1-0.3,0.2-0.6,0.4-0.8
	c0.2-0.2,0.2-0.2,0.4-0.2c0.2-0.2,0.6-0.2,0.8,0c0.2,0,0.2,0.2,0.4,0.2c0.5,0.3,0.5,1,0.2,1.4C33.4,28.4,33.3,28.5,33.3,28.6z
	 M36.9,25.5h-9V12.7c0-0.2,0.2-0.6,0.4-0.6h8c0.3,0,0.6,0.2,0.6,0.5c0,0,0,0.1,0,0.1V25.5z"/>
<path class="st0" d="M31.2,0H3.5C1.6,0,0.1,1.4,0,3.3V22c0,2.7,1,3.5,3.5,3.5h20.8v-5.7H2.7V3.5C2.7,3,3,2.7,3.5,2.7h27.3
	c0.4,0,0.8,0.4,0.8,0.8v3.5h3.1V3.5C34.7,1.6,33.2,0,31.2,0C31.3,0,31.2,0,31.2,0z M15.1,21.7h4.6c0.5,0,0.9,0.4,0.9,0.9
	c0,0.5-0.4,0.9-0.9,0.9h-4.6c-0.5-0.1-0.8-0.5-0.8-1C14.4,22.1,14.7,21.8,15.1,21.7L15.1,21.7z"/>
</svg>
