<?xml version="1.0" encoding="utf-8"?>
<!-- Generator: Adobe Illustrator 22.0.1, SVG Export Plug-In . SVG Version: 6.00 Build 0)  -->
<svg version="1.1" id="Layer_1" xmlns="http://www.w3.org/2000/svg" xmlns:xlink="http://www.w3.org/1999/xlink" x="0px" y="0px"
	 viewBox="0 0 31.5 30" style="enable-background:new 0 0 31.5 30;" xml:space="preserve">
<style type="text/css">
	.st0{fill:#888888;}
</style>
<title>Artboard 1</title>
<path class="st0" d="M24.7,9.5h4c1.5,0,2.7-1.2,2.8-2.7v-4c0-1.5-1.2-2.8-2.7-2.8c0,0-0.1,0-0.1,0h-4C23.2,0,22,1.3,22,2.8
	c0,0,0,0,0,0.1v1H8c-4,0-7.3,2.6-7.3,6C1,13.5,4.2,16.3,7.8,16h15.7c2.5-0.1,4.7,1.7,5,4.1c-0.3,2.4-2.4,4.2-4.9,4.1H9.5v-1
	c0-1.5-1.2-2.7-2.8-2.7h-4c-1.5,0-2.7,1.2-2.7,2.7v4C0,28.8,1.2,30,2.7,30h4c1.5,0,2.8-1.2,2.8-2.8v-1h14.1c3.7,0.2,6.9-2.5,7.1-6.2
	c-0.2-3.6-3.3-6.2-6.9-6c0,0-0.1,0-0.1,0H8c-2.5,0.1-4.7-1.7-5.1-4.3c0.3-2.4,2.5-4.2,4.9-4H22v1.1C22.1,8.3,23.3,9.5,24.7,9.5z
	 M23.5,2.8c0-0.7,0.6-1.2,1.3-1.2h4c0.7,0,1.3,0.6,1.3,1.3v4c0,0.7-0.6,1.2-1.2,1.3h-4c-0.7,0-1.3-0.5-1.3-1.2c0,0,0,0,0,0V2.8z
	 M8,27.2c0,0.7-0.6,1.2-1.2,1.3h-4c-0.7,0-1.2-0.6-1.2-1.2v-4c0-0.7,0.6-1.2,1.3-1.2h4C7.5,22,8,22.6,8,23.3l0,0L8,27.2z"/>
</svg>
